<svg xmlns="http://www.w3.org/2000/svg" xmlns:xlink="http://www.w3.org/1999/xlink" width="1080" zoomAndPan="magnify" viewBox="0 0 810 809.999993" height="1080" preserveAspectRatio="xMidYMid meet" version="1.0"><path fill="#ffffff" d="M 405 303.75 C 403.34375 303.75 401.6875 303.789062 400.03125 303.871094 C 398.375 303.953125 396.726562 304.074219 395.074219 304.238281 C 393.425781 304.398438 391.78125 304.601562 390.144531 304.847656 C 388.503906 305.089844 386.871094 305.371094 385.246094 305.695312 C 383.621094 306.019531 382.003906 306.382812 380.398438 306.785156 C 378.789062 307.1875 377.195312 307.628906 375.609375 308.109375 C 374.023438 308.589844 372.449219 309.109375 370.890625 309.667969 C 369.328125 310.226562 367.785156 310.824219 366.253906 311.457031 C 364.722656 312.089844 363.207031 312.761719 361.710938 313.472656 C 360.210938 314.179688 358.734375 314.925781 357.269531 315.707031 C 355.808594 316.488281 354.367188 317.304688 352.945312 318.15625 C 351.527344 319.007812 350.125 319.894531 348.75 320.8125 C 347.371094 321.734375 346.015625 322.6875 344.683594 323.675781 C 343.355469 324.664062 342.046875 325.679688 340.769531 326.734375 C 339.488281 327.785156 338.230469 328.867188 337.003906 329.980469 C 335.777344 331.089844 334.578125 332.234375 333.40625 333.40625 C 332.234375 334.578125 331.089844 335.777344 329.980469 337.003906 C 328.867188 338.234375 327.785156 339.488281 326.734375 340.769531 C 325.679688 342.046875 324.664062 343.355469 323.675781 344.683594 C 322.6875 346.015625 321.734375 347.371094 320.8125 348.75 C 319.894531 350.125 319.007812 351.527344 318.15625 352.945312 C 317.304688 354.367188 316.488281 355.808594 315.707031 357.269531 C 314.925781 358.734375 314.179688 360.210938 313.472656 361.710938 C 312.761719 363.207031 312.089844 364.722656 311.457031 366.253906 C 310.824219 367.785156 310.226562 369.328125 309.667969 370.890625 C 309.109375 372.449219 308.589844 374.023438 308.109375 375.609375 C 307.628906 377.195312 307.1875 378.789062 306.785156 380.398438 C 306.382812 382.003906 306.019531 383.621094 305.695312 385.246094 C 305.371094 386.871094 305.089844 388.503906 304.847656 390.144531 C 304.601562 391.78125 304.398438 393.425781 304.238281 395.074219 C 304.074219 396.726562 303.953125 398.375 303.871094 400.03125 C 303.789062 401.6875 303.75 403.34375 303.75 405 C 303.75 406.65625 303.789062 408.3125 303.871094 409.96875 C 303.953125 411.625 304.074219 413.273438 304.238281 414.925781 C 304.398438 416.574219 304.601562 418.21875 304.847656 419.855469 C 305.089844 421.496094 305.371094 423.128906 305.695312 424.753906 C 306.019531 426.378906 306.382812 427.996094 306.785156 429.601562 C 307.1875 431.210938 307.628906 432.804688 308.109375 434.390625 C 308.589844 435.976562 309.109375 437.550781 309.667969 439.109375 C 310.226562 440.671875 310.824219 442.214844 311.457031 443.746094 C 312.089844 445.277344 312.761719 446.792969 313.472656 448.289062 C 314.179688 449.789062 314.925781 451.265625 315.707031 452.730469 C 316.488281 454.191406 317.304688 455.632812 318.15625 457.054688 C 319.007812 458.472656 319.894531 459.875 320.8125 461.25 C 321.734375 462.628906 322.6875 463.984375 323.675781 465.316406 C 324.664062 466.644531 325.679688 467.953125 326.734375 469.230469 C 327.785156 470.511719 328.867188 471.765625 329.980469 472.996094 C 331.089844 474.222656 332.234375 475.421875 333.40625 476.59375 C 334.578125 477.765625 335.777344 478.910156 337.003906 480.019531 C 338.230469 481.132812 339.488281 482.214844 340.769531 483.265625 C 342.046875 484.320312 343.355469 485.335938 344.683594 486.324219 C 346.015625 487.3125 347.371094 488.265625 348.75 489.1875 C 350.125 490.105469 351.527344 490.992188 352.945312 491.84375 C 354.367188 492.695312 355.808594 493.511719 357.269531 494.292969 C 358.730469 495.074219 360.210938 495.820312 361.710938 496.527344 C 363.207031 497.238281 364.722656 497.910156 366.253906 498.542969 C 367.785156 499.175781 369.328125 499.773438 370.890625 500.332031 C 372.449219 500.890625 374.023438 501.410156 375.609375 501.890625 C 377.195312 502.371094 378.789062 502.8125 380.398438 503.214844 C 382.003906 503.617188 383.621094 503.980469 385.246094 504.304688 C 386.871094 504.628906 388.503906 504.910156 390.144531 505.152344 C 391.78125 505.398438 393.425781 505.601562 395.074219 505.761719 C 396.726562 505.925781 398.375 506.046875 400.03125 506.128906 C 401.6875 506.210938 403.34375 506.25 405 506.25 C 406.65625 506.25 408.3125 506.210938 409.96875 506.128906 C 411.625 506.046875 413.273438 505.925781 414.925781 505.761719 C 416.574219 505.601562 418.21875 505.398438 419.855469 505.152344 C 421.496094 504.910156 423.128906 504.628906 424.753906 504.304688 C 426.378906 503.980469 427.996094 503.617188 429.601562 503.214844 C 431.210938 502.8125 432.804688 502.371094 434.390625 501.890625 C 435.976562 501.410156 437.550781 500.890625 439.109375 500.332031 C 440.671875 499.773438 442.214844 499.175781 443.746094 498.542969 C 445.277344 497.910156 446.792969 497.238281 448.289062 496.527344 C 449.789062 495.820312 451.265625 495.074219 452.730469 494.292969 C 454.191406 493.511719 455.632812 492.695312 457.054688 491.84375 C 458.472656 490.992188 459.875 490.105469 461.25 489.1875 C 462.628906 488.265625 463.984375 487.3125 465.3125 486.324219 C 466.644531 485.335938 467.953125 484.320312 469.230469 483.265625 C 470.511719 482.214844 471.765625 481.132812 472.996094 480.019531 C 474.222656 478.910156 475.421875 477.765625 476.59375 476.59375 C 477.765625 475.421875 478.910156 474.222656 480.019531 472.996094 C 481.132812 471.765625 482.214844 470.511719 483.265625 469.230469 C 484.320312 467.953125 485.335938 466.644531 486.324219 465.316406 C 487.3125 463.984375 488.265625 462.628906 489.1875 461.25 C 490.105469 459.875 490.992188 458.472656 491.84375 457.054688 C 492.695312 455.632812 493.511719 454.191406 494.292969 452.730469 C 495.074219 451.265625 495.820312 449.789062 496.527344 448.289062 C 497.238281 446.792969 497.910156 445.277344 498.542969 443.746094 C 499.175781 442.214844 499.773438 440.671875 500.332031 439.109375 C 500.890625 437.550781 501.410156 435.976562 501.890625 434.390625 C 502.371094 432.804688 502.8125 431.210938 503.214844 429.601562 C 503.617188 427.996094 503.980469 426.378906 504.304688 424.753906 C 504.628906 423.128906 504.910156 421.496094 505.152344 419.855469 C 505.398438 418.21875 505.601562 416.574219 505.761719 414.925781 C 505.925781 413.273438 506.046875 411.625 506.128906 409.96875 C 506.210938 408.3125 506.25 406.65625 506.25 405 C 506.25 403.34375 506.210938 401.6875 506.128906 400.03125 C 506.046875 398.375 505.925781 396.726562 505.761719 395.074219 C 505.601562 393.425781 505.398438 391.78125 505.152344 390.144531 C 504.910156 388.503906 504.628906 386.871094 504.304688 385.246094 C 503.980469 383.621094 503.617188 382.003906 503.214844 380.398438 C 502.8125 378.789062 502.371094 377.195312 501.890625 375.609375 C 501.410156 374.023438 500.890625 372.449219 500.332031 370.890625 C 499.773438 369.328125 499.175781 367.785156 498.542969 366.253906 C 497.910156 364.722656 497.238281 363.207031 496.527344 361.710938 C 495.820312 360.210938 495.074219 358.730469 494.292969 357.269531 C 493.511719 355.808594 492.695312 354.367188 491.84375 352.945312 C 490.992188 351.527344 490.105469 350.125 489.1875 348.75 C 488.265625 347.371094 487.3125 346.015625 486.324219 344.683594 C 485.335938 343.355469 484.320312 342.046875 483.265625 340.769531 C 482.214844 339.488281 481.132812 338.230469 480.019531 337.003906 C 478.910156 335.777344 477.765625 334.578125 476.59375 333.40625 C 475.421875 332.234375 474.222656 331.089844 472.996094 329.980469 C 471.765625 328.867188 470.511719 327.785156 469.230469 326.734375 C 467.953125 325.679688 466.644531 324.664062 465.316406 323.675781 C 463.984375 322.6875 462.628906 321.734375 461.25 320.8125 C 459.875 319.894531 458.472656 319.007812 457.054688 318.15625 C 455.632812 317.304688 454.191406 316.488281 452.730469 315.707031 C 451.265625 314.925781 449.789062 314.179688 448.289062 313.472656 C 446.792969 312.761719 445.277344 312.089844 443.746094 311.457031 C 442.214844 310.824219 440.671875 310.226562 439.109375 309.667969 C 437.550781 309.109375 435.976562 308.589844 434.390625 308.109375 C 432.804688 307.628906 431.210938 307.1875 429.601562 306.785156 C 427.996094 306.382812 426.378906 306.019531 424.753906 305.695312 C 423.128906 305.371094 421.496094 305.089844 419.855469 304.847656 C 418.21875 304.601562 416.574219 304.398438 414.925781 304.238281 C 413.273438 304.074219 411.625 303.953125 409.96875 303.871094 C 408.3125 303.789062 406.65625 303.75 405 303.75 M 405 573.75 C 402.238281 573.75 399.476562 573.683594 396.71875 573.546875 C 393.960938 573.410156 391.207031 573.207031 388.460938 572.9375 C 385.710938 572.667969 382.972656 572.328125 380.238281 571.921875 C 377.507812 571.519531 374.789062 571.046875 372.078125 570.507812 C 369.371094 569.96875 366.675781 569.363281 363.996094 568.691406 C 361.316406 568.023438 358.65625 567.285156 356.015625 566.484375 C 353.371094 565.683594 350.75 564.816406 348.148438 563.886719 C 345.550781 562.957031 342.972656 561.960938 340.421875 560.90625 C 337.871094 559.847656 335.347656 558.730469 332.851562 557.546875 C 330.351562 556.367188 327.886719 555.125 325.453125 553.824219 C 323.015625 552.523438 320.613281 551.160156 318.246094 549.742188 C 315.875 548.320312 313.542969 546.84375 311.246094 545.308594 C 308.949219 543.777344 306.695312 542.1875 304.476562 540.542969 C 302.257812 538.894531 300.082031 537.199219 297.945312 535.445312 C 295.8125 533.695312 293.71875 531.890625 291.675781 530.035156 C 289.628906 528.179688 287.628906 526.277344 285.675781 524.324219 C 283.722656 522.371094 281.820312 520.371094 279.964844 518.324219 C 278.109375 516.277344 276.304688 514.1875 274.554688 512.054688 C 272.800781 509.917969 271.105469 507.742188 269.457031 505.523438 C 267.8125 503.304688 266.222656 501.046875 264.6875 498.753906 C 263.15625 496.457031 261.679688 494.125 260.257812 491.753906 C 258.839844 489.386719 257.476562 486.984375 256.175781 484.546875 C 254.875 482.113281 253.632812 479.644531 252.453125 477.148438 C 251.269531 474.652344 250.152344 472.128906 249.09375 469.578125 C 248.039062 467.027344 247.042969 464.449219 246.113281 461.851562 C 245.183594 459.25 244.316406 456.628906 243.515625 453.984375 C 242.714844 451.34375 241.976562 448.683594 241.308594 446.003906 C 240.636719 443.324219 240.03125 440.628906 239.492188 437.921875 C 238.953125 435.210938 238.480469 432.492188 238.078125 429.761719 C 237.671875 427.027344 237.332031 424.289062 237.0625 421.539062 C 236.792969 418.792969 236.589844 416.039062 236.453125 413.28125 C 236.316406 410.523438 236.25 407.761719 236.25 405 C 236.25 402.238281 236.316406 399.476562 236.453125 396.71875 C 236.589844 393.960938 236.792969 391.207031 237.0625 388.460938 C 237.332031 385.710938 237.671875 382.972656 238.078125 380.238281 C 238.480469 377.507812 238.953125 374.789062 239.492188 372.078125 C 240.03125 369.371094 240.636719 366.675781 241.308594 363.996094 C 241.976562 361.316406 242.714844 358.65625 243.515625 356.015625 C 244.316406 353.371094 245.183594 350.75 246.113281 348.148438 C 247.042969 345.550781 248.039062 342.972656 249.09375 340.421875 C 250.152344 337.871094 251.269531 335.347656 252.453125 332.851562 C 253.632812 330.351562 254.875 327.886719 256.175781 325.453125 C 257.476562 323.015625 258.839844 320.613281 260.257812 318.246094 C 261.679688 315.875 263.15625 313.542969 264.691406 311.246094 C 266.222656 308.953125 267.8125 306.695312 269.457031 304.476562 C 271.105469 302.257812 272.800781 300.082031 274.554688 297.945312 C 276.304688 295.8125 278.109375 293.722656 279.964844 291.675781 C 281.820312 289.628906 283.722656 287.628906 285.675781 285.675781 C 287.628906 283.722656 289.628906 281.820312 291.675781 279.964844 C 293.722656 278.109375 295.8125 276.304688 297.945312 274.554688 C 300.082031 272.800781 302.257812 271.105469 304.476562 269.457031 C 306.695312 267.8125 308.953125 266.222656 311.246094 264.691406 C 313.542969 263.15625 315.875 261.679688 318.246094 260.257812 C 320.613281 258.839844 323.015625 257.476562 325.453125 256.175781 C 327.886719 254.875 330.351562 253.632812 332.851562 252.453125 C 335.347656 251.269531 337.871094 250.152344 340.421875 249.09375 C 342.972656 248.039062 345.550781 247.042969 348.148438 246.113281 C 350.75 245.183594 353.371094 244.316406 356.015625 243.515625 C 358.65625 242.714844 361.316406 241.976562 363.996094 241.308594 C 366.675781 240.636719 369.371094 240.03125 372.078125 239.492188 C 374.789062 238.953125 377.507812 238.480469 380.238281 238.078125 C 382.972656 237.671875 385.710938 237.332031 388.460938 237.0625 C 391.207031 236.792969 393.960938 236.589844 396.71875 236.453125 C 399.476562 236.316406 402.238281 236.25 405 236.25 C 407.761719 236.25 410.523438 236.316406 413.28125 236.453125 C 416.039062 236.589844 418.792969 236.792969 421.539062 237.0625 C 424.289062 237.332031 427.027344 237.671875 429.761719 238.078125 C 432.492188 238.480469 435.210938 238.953125 437.921875 239.492188 C 440.628906 240.03125 443.324219 240.636719 446.003906 241.308594 C 448.683594 241.976562 451.34375 242.714844 453.984375 243.515625 C 456.628906 244.316406 459.25 245.183594 461.851562 246.113281 C 464.449219 247.042969 467.027344 248.039062 469.578125 249.09375 C 472.128906 250.152344 474.652344 251.269531 477.148438 252.453125 C 479.644531 253.632812 482.113281 254.875 484.546875 256.175781 C 486.984375 257.476562 489.386719 258.839844 491.753906 260.257812 C 494.125 261.679688 496.457031 263.15625 498.753906 264.691406 C 501.046875 266.222656 503.304688 267.8125 505.523438 269.457031 C 507.742188 271.105469 509.917969 272.800781 512.054688 274.554688 C 514.1875 276.304688 516.277344 278.109375 518.324219 279.964844 C 520.371094 281.820312 522.371094 283.722656 524.324219 285.675781 C 526.277344 287.628906 528.179688 289.628906 530.035156 291.675781 C 531.890625 293.722656 533.695312 295.8125 535.445312 297.945312 C 537.199219 300.082031 538.894531 302.257812 540.542969 304.476562 C 542.1875 306.695312 543.777344 308.953125 545.308594 311.246094 C 546.84375 313.542969 548.320312 315.875 549.742188 318.246094 C 551.160156 320.613281 552.523438 323.015625 553.824219 325.453125 C 555.125 327.886719 556.367188 330.351562 557.546875 332.851562 C 558.730469 335.347656 559.847656 337.871094 560.90625 340.421875 C 561.960938 342.972656 562.953125 345.550781 563.886719 348.148438 C 564.816406 350.75 565.683594 353.371094 566.484375 356.015625 C 567.285156 358.65625 568.023438 361.316406 568.691406 363.996094 C 569.363281 366.675781 569.96875 369.371094 570.507812 372.078125 C 571.046875 374.789062 571.519531 377.507812 571.921875 380.238281 C 572.328125 382.972656 572.667969 385.710938 572.9375 388.460938 C 573.207031 391.207031 573.410156 393.960938 573.546875 396.71875 C 573.683594 399.476562 573.75 402.238281 573.75 405 C 573.75 407.761719 573.683594 410.523438 573.546875 413.28125 C 573.410156 416.039062 573.207031 418.792969 572.9375 421.539062 C 572.667969 424.289062 572.328125 427.027344 571.921875 429.761719 C 571.519531 432.492188 571.046875 435.210938 570.507812 437.921875 C 569.96875 440.628906 569.363281 443.324219 568.691406 446.003906 C 568.023438 448.683594 567.285156 451.34375 566.484375 453.984375 C 565.683594 456.628906 564.816406 459.25 563.886719 461.851562 C 562.953125 464.449219 561.960938 467.027344 560.90625 469.578125 C 559.847656 472.128906 558.730469 474.652344 557.546875 477.148438 C 556.367188 479.644531 555.125 482.113281 553.824219 484.546875 C 552.523438 486.984375 551.160156 489.386719 549.742188 491.753906 C 548.320312 494.125 546.84375 496.457031 545.308594 498.753906 C 543.777344 501.046875 542.1875 503.304688 540.542969 505.523438 C 538.894531 507.742188 537.199219 509.917969 535.445312 512.054688 C 533.695312 514.1875 531.890625 516.277344 530.035156 518.324219 C 528.179688 520.371094 526.277344 522.371094 524.324219 524.324219 C 522.371094 526.277344 520.371094 528.179688 518.324219 530.035156 C 516.277344 531.890625 514.1875 533.695312 512.054688 535.445312 C 509.917969 537.199219 507.742188 538.894531 505.523438 540.542969 C 503.304688 542.1875 501.046875 543.777344 498.753906 545.308594 C 496.457031 546.84375 494.125 548.320312 491.753906 549.742188 C 489.386719 551.160156 486.984375 552.523438 484.546875 553.824219 C 482.113281 555.125 479.644531 556.367188 477.148438 557.546875 C 474.652344 558.730469 472.128906 559.847656 469.578125 560.90625 C 467.027344 561.960938 464.449219 562.953125 461.851562 563.886719 C 459.25 564.816406 456.628906 565.683594 453.984375 566.484375 C 451.34375 567.285156 448.683594 568.023438 446.003906 568.691406 C 443.324219 569.363281 440.628906 569.96875 437.921875 570.507812 C 435.210938 571.046875 432.492188 571.519531 429.761719 571.921875 C 427.027344 572.328125 424.289062 572.667969 421.539062 572.9375 C 418.792969 573.207031 416.039062 573.410156 413.28125 573.546875 C 410.523438 573.683594 407.761719 573.75 405 573.75 M 405 151.875 C 236.25 151.875 92.136719 256.835938 33.75 405 C 92.136719 553.164062 236.25 658.125 405 658.125 C 573.75 658.125 717.863281 553.164062 776.25 405 C 717.863281 256.835938 573.75 151.875 405 151.875 Z M 405 151.875 " fill-opacity="1" fill-rule="nonzero"/></svg>