<svg xmlns="http://www.w3.org/2000/svg" xmlns:xlink="http://www.w3.org/1999/xlink" width="1080" zoomAndPan="magnify" viewBox="0 0 810 809.999993" height="1080" preserveAspectRatio="xMidYMid meet" version="1.0"><path fill="#ffffff" d="M 101.25 405 L 236.25 405 C 236.25 402.238281 236.316406 399.476562 236.453125 396.71875 C 236.589844 393.960938 236.792969 391.207031 237.0625 388.460938 C 237.332031 385.710938 237.671875 382.972656 238.078125 380.238281 C 238.480469 377.507812 238.953125 374.789062 239.492188 372.078125 C 240.03125 369.371094 240.636719 366.675781 241.308594 363.996094 C 241.976562 361.316406 242.714844 358.65625 243.515625 356.015625 C 244.316406 353.371094 245.183594 350.75 246.113281 348.148438 C 247.042969 345.550781 248.039062 342.972656 249.09375 340.421875 C 250.152344 337.871094 251.269531 335.347656 252.453125 332.851562 C 253.632812 330.351562 254.875 327.886719 256.175781 325.453125 C 257.476562 323.015625 258.839844 320.613281 260.257812 318.246094 C 261.679688 315.875 263.15625 313.542969 264.691406 311.246094 C 266.222656 308.953125 267.8125 306.695312 269.457031 304.476562 C 271.105469 302.257812 272.800781 300.082031 274.554688 297.945312 C 276.304688 295.8125 278.109375 293.722656 279.964844 291.675781 C 281.820312 289.628906 283.722656 287.628906 285.675781 285.675781 C 287.628906 283.722656 289.628906 281.820312 291.675781 279.964844 C 293.722656 278.109375 295.8125 276.304688 297.945312 274.554688 C 300.082031 272.800781 302.257812 271.105469 304.476562 269.457031 C 306.695312 267.8125 308.953125 266.222656 311.246094 264.691406 C 313.542969 263.15625 315.875 261.679688 318.246094 260.257812 C 320.613281 258.839844 323.015625 257.476562 325.453125 256.175781 C 327.886719 254.875 330.351562 253.632812 332.851562 252.453125 C 335.347656 251.269531 337.871094 250.152344 340.421875 249.09375 C 342.972656 248.039062 345.550781 247.042969 348.148438 246.113281 C 350.75 245.183594 353.371094 244.316406 356.015625 243.515625 C 358.65625 242.714844 361.316406 241.976562 363.996094 241.308594 C 366.675781 240.636719 369.371094 240.03125 372.078125 239.492188 C 374.789062 238.953125 377.507812 238.480469 380.238281 238.078125 C 382.972656 237.671875 385.710938 237.332031 388.460938 237.0625 C 391.207031 236.792969 393.960938 236.589844 396.71875 236.453125 C 399.476562 236.316406 402.238281 236.25 405 236.25 C 407.761719 236.25 410.523438 236.316406 413.28125 236.453125 C 416.039062 236.589844 418.792969 236.792969 421.539062 237.0625 C 424.289062 237.332031 427.027344 237.671875 429.761719 238.078125 C 432.492188 238.480469 435.210938 238.953125 437.921875 239.492188 C 440.628906 240.03125 443.324219 240.636719 446.003906 241.308594 C 448.683594 241.976562 451.34375 242.714844 453.984375 243.515625 C 456.628906 244.316406 459.25 245.183594 461.851562 246.113281 C 464.449219 247.042969 467.027344 248.039062 469.578125 249.09375 C 472.128906 250.152344 474.652344 251.269531 477.148438 252.453125 C 479.644531 253.632812 482.113281 254.875 484.546875 256.175781 C 486.984375 257.476562 489.386719 258.839844 491.753906 260.257812 C 494.125 261.679688 496.457031 263.15625 498.753906 264.691406 C 501.046875 266.222656 503.304688 267.8125 505.523438 269.457031 C 507.742188 271.105469 509.917969 272.800781 512.054688 274.554688 C 514.1875 276.304688 516.277344 278.109375 518.324219 279.964844 C 520.371094 281.820312 522.371094 283.722656 524.324219 285.675781 C 526.277344 287.628906 528.179688 289.628906 530.035156 291.675781 C 531.890625 293.722656 533.695312 295.8125 535.445312 297.945312 C 537.199219 300.082031 538.894531 302.257812 540.542969 304.476562 C 542.1875 306.695312 543.777344 308.953125 545.308594 311.246094 C 546.84375 313.542969 548.320312 315.875 549.742188 318.246094 C 551.160156 320.613281 552.523438 323.015625 553.824219 325.453125 C 555.125 327.886719 556.367188 330.351562 557.546875 332.851562 C 558.730469 335.347656 559.847656 337.871094 560.90625 340.421875 C 561.960938 342.972656 562.953125 345.550781 563.886719 348.148438 C 564.816406 350.75 565.683594 353.371094 566.484375 356.015625 C 567.285156 358.65625 568.023438 361.316406 568.691406 363.996094 C 569.363281 366.675781 569.96875 369.371094 570.507812 372.078125 C 571.046875 374.789062 571.519531 377.507812 571.921875 380.238281 C 572.328125 382.972656 572.667969 385.710938 572.9375 388.460938 C 573.207031 391.207031 573.410156 393.960938 573.546875 396.71875 C 573.683594 399.476562 573.75 402.238281 573.75 405 L 708.75 405 C 709.855469 405 710.957031 405.054688 712.058594 405.164062 C 713.15625 405.269531 714.25 405.433594 715.335938 405.648438 C 716.417969 405.863281 717.488281 406.132812 718.546875 406.453125 C 719.605469 406.773438 720.644531 407.144531 721.664062 407.570312 C 722.6875 407.992188 723.683594 408.464844 724.660156 408.984375 C 725.632812 409.507812 726.582031 410.074219 727.5 410.6875 C 728.417969 411.300781 729.304688 411.960938 730.160156 412.660156 C 731.015625 413.363281 731.832031 414.105469 732.613281 414.886719 C 733.394531 415.667969 734.136719 416.484375 734.839844 417.339844 C 735.539062 418.195312 736.199219 419.082031 736.8125 420 C 737.425781 420.917969 737.992188 421.867188 738.515625 422.839844 C 739.035156 423.816406 739.507812 424.8125 739.929688 425.835938 C 740.355469 426.855469 740.726562 427.894531 741.046875 428.953125 C 741.367188 430.011719 741.636719 431.082031 741.851562 432.164062 C 742.066406 433.25 742.230469 434.34375 742.335938 435.441406 C 742.445312 436.542969 742.5 437.644531 742.5 438.75 C 742.5 439.855469 742.445312 440.957031 742.335938 442.058594 C 742.230469 443.15625 742.066406 444.25 741.851562 445.335938 C 741.636719 446.417969 741.367188 447.488281 741.046875 448.546875 C 740.726562 449.605469 740.355469 450.644531 739.929688 451.664062 C 739.507812 452.6875 739.035156 453.683594 738.515625 454.660156 C 737.992188 455.632812 737.425781 456.582031 736.8125 457.5 C 736.199219 458.417969 735.539062 459.304688 734.839844 460.160156 C 734.136719 461.015625 733.394531 461.832031 732.613281 462.613281 C 731.832031 463.394531 731.015625 464.136719 730.160156 464.839844 C 729.304688 465.539062 728.417969 466.199219 727.5 466.8125 C 726.582031 467.425781 725.632812 467.992188 724.660156 468.515625 C 723.683594 469.035156 722.6875 469.507812 721.664062 469.929688 C 720.644531 470.355469 719.605469 470.726562 718.546875 471.046875 C 717.488281 471.367188 716.417969 471.636719 715.335938 471.851562 C 714.25 472.066406 713.15625 472.230469 712.058594 472.335938 C 710.957031 472.445312 709.855469 472.5 708.75 472.5 L 101.25 472.5 C 100.144531 472.5 99.042969 472.445312 97.941406 472.335938 C 96.84375 472.230469 95.75 472.066406 94.664062 471.851562 C 93.582031 471.636719 92.511719 471.367188 91.453125 471.046875 C 90.394531 470.726562 89.355469 470.355469 88.335938 469.929688 C 87.3125 469.507812 86.316406 469.035156 85.339844 468.515625 C 84.367188 467.992188 83.417969 467.425781 82.5 466.8125 C 81.582031 466.199219 80.695312 465.539062 79.839844 464.839844 C 78.984375 464.136719 78.167969 463.394531 77.386719 462.613281 C 76.605469 461.832031 75.863281 461.015625 75.160156 460.160156 C 74.460938 459.304688 73.800781 458.417969 73.1875 457.5 C 72.574219 456.582031 72.007812 455.632812 71.484375 454.660156 C 70.964844 453.683594 70.492188 452.6875 70.070312 451.664062 C 69.644531 450.644531 69.273438 449.605469 68.953125 448.546875 C 68.632812 447.488281 68.363281 446.417969 68.148438 445.335938 C 67.933594 444.25 67.769531 443.15625 67.664062 442.058594 C 67.554688 440.957031 67.5 439.855469 67.5 438.75 C 67.5 437.644531 67.554688 436.542969 67.664062 435.441406 C 67.769531 434.34375 67.933594 433.25 68.148438 432.164062 C 68.363281 431.082031 68.632812 430.011719 68.953125 428.953125 C 69.273438 427.894531 69.644531 426.855469 70.070312 425.835938 C 70.492188 424.8125 70.964844 423.816406 71.484375 422.839844 C 72.007812 421.867188 72.574219 420.917969 73.1875 420 C 73.800781 419.082031 74.460938 418.195312 75.160156 417.339844 C 75.863281 416.484375 76.605469 415.667969 77.386719 414.886719 C 78.167969 414.105469 78.984375 413.363281 79.839844 412.660156 C 80.695312 411.960938 81.582031 411.300781 82.5 410.6875 C 83.417969 410.074219 84.367188 409.507812 85.339844 408.984375 C 86.316406 408.464844 87.3125 407.992188 88.335938 407.570312 C 89.355469 407.144531 90.394531 406.773438 91.453125 406.453125 C 92.511719 406.132812 93.582031 405.863281 94.664062 405.648438 C 95.75 405.433594 96.84375 405.269531 97.941406 405.164062 C 99.042969 405.054688 100.144531 405 101.25 405 M 506.25 405 C 506.25 403.34375 506.210938 401.6875 506.128906 400.03125 C 506.046875 398.375 505.925781 396.726562 505.761719 395.074219 C 505.601562 393.425781 505.398438 391.78125 505.152344 390.144531 C 504.910156 388.503906 504.628906 386.871094 504.304688 385.246094 C 503.980469 383.621094 503.617188 382.003906 503.214844 380.398438 C 502.8125 378.789062 502.371094 377.195312 501.890625 375.609375 C 501.410156 374.023438 500.890625 372.449219 500.332031 370.890625 C 499.773438 369.328125 499.175781 367.785156 498.542969 366.253906 C 497.910156 364.722656 497.238281 363.207031 496.527344 361.710938 C 495.820312 360.210938 495.074219 358.730469 494.292969 357.269531 C 493.511719 355.808594 492.695312 354.367188 491.84375 352.945312 C 490.992188 351.527344 490.105469 350.125 489.1875 348.75 C 488.265625 347.371094 487.3125 346.015625 486.324219 344.683594 C 485.335938 343.355469 484.320312 342.046875 483.265625 340.769531 C 482.214844 339.488281 481.132812 338.230469 480.019531 337.003906 C 478.910156 335.777344 477.765625 334.578125 476.59375 333.40625 C 475.421875 332.234375 474.222656 331.089844 472.996094 329.980469 C 471.765625 328.867188 470.511719 327.785156 469.230469 326.734375 C 467.953125 325.679688 466.644531 324.664062 465.316406 323.675781 C 463.984375 322.6875 462.628906 321.734375 461.25 320.8125 C 459.875 319.894531 458.472656 319.007812 457.054688 318.15625 C 455.632812 317.304688 454.191406 316.488281 452.730469 315.707031 C 451.265625 314.925781 449.789062 314.179688 448.289062 313.472656 C 446.792969 312.761719 445.277344 312.089844 443.746094 311.457031 C 442.214844 310.824219 440.671875 310.226562 439.109375 309.667969 C 437.550781 309.109375 435.976562 308.589844 434.390625 308.109375 C 432.804688 307.628906 431.210938 307.1875 429.601562 306.785156 C 427.996094 306.382812 426.378906 306.019531 424.753906 305.695312 C 423.128906 305.371094 421.496094 305.089844 419.855469 304.847656 C 418.21875 304.601562 416.574219 304.398438 414.925781 304.238281 C 413.273438 304.074219 411.625 303.953125 409.96875 303.871094 C 408.3125 303.789062 406.65625 303.75 405 303.75 C 403.34375 303.75 401.6875 303.789062 400.03125 303.871094 C 398.375 303.953125 396.726562 304.074219 395.074219 304.238281 C 393.425781 304.398438 391.78125 304.601562 390.144531 304.847656 C 388.503906 305.089844 386.871094 305.371094 385.246094 305.695312 C 383.621094 306.019531 382.003906 306.382812 380.398438 306.785156 C 378.789062 307.1875 377.195312 307.628906 375.609375 308.109375 C 374.023438 308.589844 372.449219 309.109375 370.890625 309.667969 C 369.328125 310.226562 367.785156 310.824219 366.253906 311.457031 C 364.722656 312.089844 363.207031 312.761719 361.710938 313.472656 C 360.210938 314.179688 358.734375 314.925781 357.269531 315.707031 C 355.808594 316.488281 354.367188 317.304688 352.945312 318.15625 C 351.527344 319.007812 350.125 319.894531 348.75 320.8125 C 347.371094 321.734375 346.015625 322.6875 344.683594 323.675781 C 343.355469 324.664062 342.046875 325.679688 340.769531 326.734375 C 339.488281 327.785156 338.230469 328.867188 337.003906 329.980469 C 335.777344 331.089844 334.578125 332.234375 333.40625 333.40625 C 332.234375 334.578125 331.089844 335.777344 329.980469 337.003906 C 328.867188 338.234375 327.785156 339.488281 326.734375 340.769531 C 325.679688 342.046875 324.664062 343.355469 323.675781 344.683594 C 322.6875 346.015625 321.734375 347.371094 320.8125 348.75 C 319.894531 350.125 319.007812 351.527344 318.15625 352.945312 C 317.304688 354.367188 316.488281 355.808594 315.707031 357.269531 C 314.925781 358.734375 314.179688 360.210938 313.472656 361.710938 C 312.761719 363.207031 312.089844 364.722656 311.457031 366.253906 C 310.824219 367.785156 310.226562 369.328125 309.667969 370.890625 C 309.109375 372.449219 308.589844 374.023438 308.109375 375.609375 C 307.628906 377.195312 307.1875 378.789062 306.785156 380.398438 C 306.382812 382.003906 306.019531 383.621094 305.695312 385.246094 C 305.371094 386.871094 305.089844 388.503906 304.847656 390.144531 C 304.601562 391.78125 304.398438 393.425781 304.238281 395.074219 C 304.074219 396.726562 303.953125 398.375 303.871094 400.03125 C 303.789062 401.6875 303.75 403.34375 303.75 405 L 506.25 405 M 405 67.5 L 485.664062 182.925781 C 460.6875 173.8125 433.351562 168.75 405 168.75 C 376.648438 168.75 349.3125 173.8125 324.335938 182.925781 L 405 67.5 M 112.726562 236.25 L 253.125 224.4375 C 232.875 241.648438 214.648438 262.574219 200.476562 286.875 C 185.625 311.851562 177.1875 337.5 172.460938 364.164062 L 112.726562 236.25 M 696.9375 236.25 L 637.199219 364.164062 C 632.476562 337.5 623.363281 311.511719 609.1875 286.875 C 595.011719 262.574219 577.125 241.3125 556.875 224.101562 L 696.9375 236.25 M 428.960938 550.125 L 533.925781 655.085938 C 547.085938 668.25 547.085938 689.511719 533.925781 702.675781 C 520.761719 715.835938 499.5 715.835938 486.335938 702.675781 L 405 621.335938 L 323.664062 702.675781 C 310.5 715.835938 289.238281 715.835938 276.074219 702.675781 C 262.914062 689.511719 262.914062 668.25 276.074219 655.085938 L 381.039062 550.125 C 388.125 543.375 396.226562 540 405 540 C 413.773438 540 421.875 543.375 428.960938 550.125 Z M 428.960938 550.125 " fill-opacity="1" fill-rule="nonzero"/></svg>