<svg xmlns="http://www.w3.org/2000/svg" xmlns:xlink="http://www.w3.org/1999/xlink" width="1080" zoomAndPan="magnify" viewBox="0 0 810 809.999993" height="1080" preserveAspectRatio="xMidYMid meet" version="1.0"><path fill="#ffffff" d="M 478.914062 478.914062 L 202.5 607.5 L 331.085938 331.085938 L 607.5 202.5 M 405 67.5 C 399.476562 67.5 393.957031 67.636719 388.441406 67.90625 C 382.921875 68.175781 377.417969 68.582031 371.917969 69.125 C 366.421875 69.667969 360.941406 70.34375 355.476562 71.152344 C 350.015625 71.964844 344.574219 72.90625 339.15625 73.984375 C 333.738281 75.0625 328.351562 76.273438 322.996094 77.613281 C 317.636719 78.957031 312.316406 80.429688 307.027344 82.03125 C 301.742188 83.636719 296.5 85.367188 291.300781 87.230469 C 286.097656 89.089844 280.949219 91.078125 275.84375 93.191406 C 270.742188 95.304688 265.691406 97.542969 260.699219 99.902344 C 255.707031 102.265625 250.773438 104.746094 245.902344 107.351562 C 241.03125 109.957031 236.226562 112.675781 231.492188 115.515625 C 226.753906 118.355469 222.085938 121.308594 217.496094 124.378906 C 212.902344 127.449219 208.386719 130.628906 203.953125 133.917969 C 199.515625 137.207031 195.160156 140.605469 190.890625 144.109375 C 186.621094 147.613281 182.441406 151.21875 178.347656 154.929688 C 174.257812 158.636719 170.257812 162.445312 166.351562 166.351562 C 162.445312 170.257812 158.636719 174.257812 154.929688 178.347656 C 151.21875 182.441406 147.613281 186.621094 144.109375 190.890625 C 140.605469 195.160156 137.207031 199.515625 133.917969 203.953125 C 130.628906 208.386719 127.449219 212.902344 124.378906 217.496094 C 121.308594 222.085938 118.355469 226.753906 115.515625 231.492188 C 112.675781 236.226562 109.957031 241.03125 107.351562 245.902344 C 104.746094 250.773438 102.265625 255.707031 99.902344 260.699219 C 97.542969 265.691406 95.304688 270.742188 93.191406 275.84375 C 91.078125 280.949219 89.089844 286.097656 87.230469 291.300781 C 85.367188 296.5 83.636719 301.742188 82.03125 307.027344 C 80.429688 312.316406 78.957031 317.636719 77.613281 322.996094 C 76.273438 328.351562 75.0625 333.738281 73.984375 339.15625 C 72.90625 344.574219 71.964844 350.015625 71.152344 355.476562 C 70.34375 360.941406 69.667969 366.421875 69.125 371.917969 C 68.582031 377.417969 68.175781 382.921875 67.90625 388.441406 C 67.636719 393.957031 67.5 399.476562 67.5 405 C 67.5 410.523438 67.636719 416.042969 67.90625 421.558594 C 68.175781 427.078125 68.582031 432.582031 69.125 438.082031 C 69.667969 443.578125 70.34375 449.058594 71.152344 454.523438 C 71.964844 459.984375 72.90625 465.425781 73.984375 470.84375 C 75.0625 476.261719 76.273438 481.648438 77.613281 487.003906 C 78.957031 492.363281 80.429688 497.683594 82.03125 502.972656 C 83.636719 508.257812 85.367188 513.5 87.230469 518.699219 C 89.089844 523.902344 91.078125 529.050781 93.191406 534.15625 C 95.304688 539.257812 97.542969 544.304688 99.902344 549.300781 C 102.265625 554.292969 104.746094 559.226562 107.351562 564.097656 C 109.957031 568.96875 112.675781 573.773438 115.515625 578.507812 C 118.355469 583.246094 121.308594 587.914062 124.378906 592.503906 C 127.449219 597.097656 130.628906 601.613281 133.917969 606.046875 C 137.207031 610.484375 140.605469 614.839844 144.109375 619.109375 C 147.613281 623.378906 151.21875 627.558594 154.929688 631.652344 C 158.636719 635.742188 162.445312 639.742188 166.351562 643.648438 C 170.257812 647.554688 174.257812 651.363281 178.347656 655.070312 C 182.441406 658.78125 186.621094 662.386719 190.890625 665.890625 C 195.160156 669.394531 199.515625 672.792969 203.953125 676.082031 C 208.386719 679.371094 212.902344 682.550781 217.496094 685.621094 C 222.085938 688.691406 226.753906 691.644531 231.492188 694.484375 C 236.226562 697.324219 241.03125 700.042969 245.902344 702.648438 C 250.773438 705.253906 255.707031 707.734375 260.699219 710.097656 C 265.691406 712.457031 270.742188 714.695312 275.84375 716.808594 C 280.949219 718.921875 286.097656 720.910156 291.300781 722.769531 C 296.5 724.632812 301.742188 726.363281 307.027344 727.96875 C 312.316406 729.570312 317.636719 731.042969 322.996094 732.386719 C 328.351562 733.726562 333.738281 734.9375 339.15625 736.015625 C 344.574219 737.09375 350.015625 738.035156 355.476562 738.847656 C 360.941406 739.65625 366.421875 740.332031 371.917969 740.875 C 377.417969 741.417969 382.921875 741.824219 388.441406 742.09375 C 393.957031 742.363281 399.476562 742.5 405 742.5 C 410.523438 742.5 416.042969 742.363281 421.558594 742.09375 C 427.078125 741.824219 432.582031 741.417969 438.082031 740.875 C 443.578125 740.332031 449.058594 739.65625 454.523438 738.847656 C 459.984375 738.035156 465.425781 737.09375 470.84375 736.015625 C 476.261719 734.9375 481.648438 733.726562 487.003906 732.386719 C 492.363281 731.042969 497.683594 729.570312 502.972656 727.96875 C 508.257812 726.363281 513.5 724.632812 518.699219 722.769531 C 523.902344 720.910156 529.050781 718.921875 534.15625 716.808594 C 539.257812 714.695312 544.304688 712.457031 549.300781 710.097656 C 554.292969 707.734375 559.226562 705.253906 564.097656 702.648438 C 568.96875 700.042969 573.773438 697.324219 578.507812 694.484375 C 583.246094 691.644531 587.914062 688.691406 592.503906 685.621094 C 597.097656 682.550781 601.613281 679.371094 606.046875 676.082031 C 610.484375 672.792969 614.839844 669.394531 619.109375 665.890625 C 623.378906 662.386719 627.558594 658.78125 631.652344 655.070312 C 635.742188 651.363281 639.742188 647.554688 643.648438 643.648438 C 647.554688 639.742188 651.363281 635.742188 655.070312 631.652344 C 658.78125 627.558594 662.386719 623.378906 665.890625 619.109375 C 669.394531 614.839844 672.792969 610.484375 676.082031 606.046875 C 679.371094 601.613281 682.550781 597.097656 685.621094 592.503906 C 688.691406 587.914062 691.644531 583.246094 694.484375 578.507812 C 697.324219 573.773438 700.042969 568.96875 702.648438 564.097656 C 705.253906 559.226562 707.734375 554.292969 710.097656 549.300781 C 712.457031 544.304688 714.695312 539.257812 716.808594 534.15625 C 718.921875 529.050781 720.910156 523.902344 722.769531 518.699219 C 724.632812 513.5 726.363281 508.257812 727.96875 502.972656 C 729.570312 497.683594 731.042969 492.363281 732.386719 487.003906 C 733.726562 481.648438 734.9375 476.261719 736.015625 470.84375 C 737.09375 465.425781 738.035156 459.984375 738.847656 454.519531 C 739.65625 449.058594 740.332031 443.578125 740.875 438.082031 C 741.417969 432.582031 741.824219 427.078125 742.09375 421.558594 C 742.363281 416.042969 742.5 410.523438 742.5 405 C 742.5 399.476562 742.363281 393.957031 742.09375 388.441406 C 741.824219 382.921875 741.417969 377.417969 740.875 371.917969 C 740.332031 366.421875 739.65625 360.941406 738.847656 355.476562 C 738.035156 350.015625 737.09375 344.574219 736.015625 339.15625 C 734.9375 333.738281 733.726562 328.351562 732.386719 322.996094 C 731.042969 317.636719 729.570312 312.316406 727.96875 307.027344 C 726.363281 301.742188 724.632812 296.5 722.769531 291.300781 C 720.910156 286.097656 718.921875 280.949219 716.808594 275.84375 C 714.695312 270.742188 712.457031 265.691406 710.097656 260.699219 C 707.734375 255.707031 705.253906 250.773438 702.648438 245.902344 C 700.042969 241.03125 697.324219 236.226562 694.484375 231.492188 C 691.644531 226.753906 688.691406 222.085938 685.621094 217.496094 C 682.550781 212.902344 679.371094 208.386719 676.082031 203.953125 C 672.792969 199.515625 669.394531 195.160156 665.890625 190.890625 C 662.386719 186.621094 658.78125 182.441406 655.070312 178.347656 C 651.363281 174.257812 647.554688 170.257812 643.648438 166.351562 C 639.742188 162.445312 635.742188 158.636719 631.652344 154.929688 C 627.558594 151.21875 623.378906 147.613281 619.109375 144.109375 C 614.839844 140.605469 610.484375 137.207031 606.046875 133.917969 C 601.613281 130.628906 597.097656 127.449219 592.503906 124.378906 C 587.914062 121.308594 583.246094 118.355469 578.507812 115.515625 C 573.773438 112.675781 568.96875 109.957031 564.097656 107.351562 C 559.226562 104.746094 554.292969 102.265625 549.300781 99.902344 C 544.304688 97.542969 539.257812 95.304688 534.15625 93.191406 C 529.050781 91.078125 523.902344 89.089844 518.699219 87.230469 C 513.5 85.367188 508.257812 83.636719 502.972656 82.03125 C 497.683594 80.429688 492.363281 78.957031 487.003906 77.613281 C 481.648438 76.273438 476.261719 75.0625 470.84375 73.984375 C 465.425781 72.90625 459.984375 71.964844 454.519531 71.152344 C 449.058594 70.34375 443.578125 69.667969 438.082031 69.125 C 432.582031 68.582031 427.078125 68.175781 421.558594 67.90625 C 416.042969 67.636719 410.523438 67.5 405 67.5 M 405 367.875 C 403.785156 367.875 402.570312 367.933594 401.359375 368.054688 C 400.152344 368.171875 398.949219 368.351562 397.757812 368.589844 C 396.566406 368.824219 395.386719 369.121094 394.222656 369.472656 C 393.058594 369.828125 391.917969 370.234375 390.792969 370.699219 C 389.667969 371.167969 388.570312 371.683594 387.5 372.257812 C 386.425781 372.832031 385.386719 373.457031 384.375 374.132812 C 383.363281 374.808594 382.386719 375.53125 381.449219 376.300781 C 380.507812 377.074219 379.609375 377.890625 378.75 378.75 C 377.890625 379.609375 377.074219 380.507812 376.300781 381.449219 C 375.53125 382.386719 374.808594 383.363281 374.132812 384.375 C 373.457031 385.386719 372.832031 386.425781 372.257812 387.5 C 371.683594 388.570312 371.167969 389.667969 370.699219 390.792969 C 370.234375 391.917969 369.828125 393.058594 369.472656 394.222656 C 369.121094 395.386719 368.824219 396.566406 368.589844 397.757812 C 368.351562 398.949219 368.171875 400.152344 368.054688 401.359375 C 367.933594 402.570312 367.875 403.785156 367.875 405 C 367.875 406.214844 367.933594 407.429688 368.054688 408.640625 C 368.171875 409.847656 368.351562 411.050781 368.589844 412.242188 C 368.824219 413.433594 369.121094 414.613281 369.472656 415.777344 C 369.828125 416.941406 370.234375 418.082031 370.699219 419.207031 C 371.167969 420.332031 371.683594 421.429688 372.257812 422.5 C 372.832031 423.574219 373.457031 424.613281 374.132812 425.625 C 374.808594 426.636719 375.53125 427.613281 376.300781 428.550781 C 377.074219 429.492188 377.890625 430.390625 378.75 431.25 C 379.609375 432.109375 380.507812 432.925781 381.449219 433.699219 C 382.386719 434.46875 383.363281 435.191406 384.375 435.867188 C 385.386719 436.542969 386.425781 437.167969 387.5 437.742188 C 388.570312 438.316406 389.667969 438.832031 390.792969 439.300781 C 391.917969 439.765625 393.058594 440.171875 394.222656 440.527344 C 395.386719 440.878906 396.566406 441.175781 397.757812 441.410156 C 398.949219 441.648438 400.152344 441.828125 401.359375 441.945312 C 402.570312 442.066406 403.785156 442.125 405 442.125 C 406.214844 442.125 407.429688 442.066406 408.640625 441.945312 C 409.847656 441.828125 411.050781 441.648438 412.242188 441.410156 C 413.433594 441.175781 414.613281 440.878906 415.777344 440.527344 C 416.941406 440.171875 418.082031 439.765625 419.207031 439.300781 C 420.332031 438.832031 421.429688 438.316406 422.5 437.742188 C 423.574219 437.167969 424.613281 436.542969 425.625 435.867188 C 426.636719 435.191406 427.613281 434.46875 428.550781 433.699219 C 429.492188 432.925781 430.390625 432.109375 431.25 431.25 C 432.109375 430.390625 432.925781 429.492188 433.699219 428.550781 C 434.46875 427.613281 435.191406 426.636719 435.867188 425.625 C 436.542969 424.613281 437.167969 423.574219 437.742188 422.5 C 438.316406 421.429688 438.832031 420.332031 439.300781 419.207031 C 439.765625 418.082031 440.171875 416.941406 440.527344 415.777344 C 440.878906 414.613281 441.175781 413.433594 441.410156 412.242188 C 441.648438 411.050781 441.828125 409.847656 441.945312 408.640625 C 442.066406 407.429688 442.125 406.214844 442.125 405 C 442.125 403.785156 442.066406 402.570312 441.945312 401.359375 C 441.828125 400.152344 441.648438 398.949219 441.410156 397.757812 C 441.175781 396.566406 440.878906 395.386719 440.527344 394.222656 C 440.171875 393.058594 439.765625 391.917969 439.300781 390.792969 C 438.832031 389.667969 438.316406 388.570312 437.742188 387.5 C 437.167969 386.425781 436.542969 385.386719 435.867188 384.375 C 435.191406 383.363281 434.46875 382.386719 433.699219 381.449219 C 432.925781 380.507812 432.109375 379.609375 431.25 378.75 C 430.390625 377.890625 429.492188 377.074219 428.550781 376.300781 C 427.613281 375.53125 426.636719 374.808594 425.625 374.132812 C 424.613281 373.457031 423.574219 372.832031 422.5 372.257812 C 421.429688 371.683594 420.332031 371.167969 419.207031 370.699219 C 418.082031 370.234375 416.941406 369.828125 415.777344 369.472656 C 414.613281 369.121094 413.433594 368.824219 412.242188 368.589844 C 411.050781 368.351562 409.847656 368.171875 408.640625 368.054688 C 407.429688 367.933594 406.214844 367.875 405 367.875 Z M 405 367.875 " fill-opacity="1" fill-rule="nonzero"/></svg>