<svg xmlns="http://www.w3.org/2000/svg" xmlns:xlink="http://www.w3.org/1999/xlink" width="1080" zoomAndPan="magnify" viewBox="0 0 810 809.999993" height="1080" preserveAspectRatio="xMidYMid meet" version="1.0"><path fill="#ffffff" d="M 135 337.5 C 133.894531 337.5 132.792969 337.445312 131.691406 337.335938 C 130.59375 337.230469 129.5 337.066406 128.414062 336.851562 C 127.332031 336.636719 126.261719 336.367188 125.203125 336.046875 C 124.144531 335.726562 123.105469 335.355469 122.085938 334.929688 C 121.0625 334.507812 120.066406 334.035156 119.089844 333.515625 C 118.117188 332.992188 117.167969 332.425781 116.25 331.8125 C 115.332031 331.199219 114.445312 330.539062 113.589844 329.839844 C 112.734375 329.136719 111.917969 328.394531 111.136719 327.613281 C 110.355469 326.832031 109.613281 326.015625 108.910156 325.160156 C 108.210938 324.304688 107.550781 323.417969 106.9375 322.5 C 106.324219 321.582031 105.757812 320.632812 105.234375 319.660156 C 104.714844 318.683594 104.242188 317.6875 103.820312 316.664062 C 103.394531 315.644531 103.023438 314.605469 102.703125 313.546875 C 102.382812 312.488281 102.113281 311.417969 101.898438 310.335938 C 101.683594 309.25 101.519531 308.15625 101.414062 307.058594 C 101.304688 305.957031 101.25 304.855469 101.25 303.75 C 101.25 302.644531 101.304688 301.542969 101.414062 300.441406 C 101.519531 299.34375 101.683594 298.25 101.898438 297.164062 C 102.113281 296.082031 102.382812 295.011719 102.703125 293.953125 C 103.023438 292.894531 103.394531 291.855469 103.820312 290.835938 C 104.242188 289.8125 104.714844 288.816406 105.234375 287.839844 C 105.757812 286.867188 106.324219 285.917969 106.9375 285 C 107.550781 284.082031 108.210938 283.195312 108.910156 282.339844 C 109.613281 281.484375 110.355469 280.667969 111.136719 279.886719 C 111.917969 279.105469 112.734375 278.363281 113.589844 277.660156 C 114.445312 276.960938 115.332031 276.300781 116.25 275.6875 C 117.167969 275.074219 118.117188 274.507812 119.089844 273.984375 C 120.066406 273.464844 121.0625 272.992188 122.085938 272.570312 C 123.105469 272.144531 124.144531 271.773438 125.203125 271.453125 C 126.261719 271.132812 127.332031 270.863281 128.414062 270.648438 C 129.5 270.433594 130.59375 270.269531 131.691406 270.164062 C 132.792969 270.054688 133.894531 270 135 270 L 405 270 C 406.105469 270 407.207031 269.972656 408.3125 269.917969 C 409.414062 269.863281 410.515625 269.785156 411.617188 269.675781 C 412.714844 269.566406 413.8125 269.429688 414.902344 269.269531 C 415.996094 269.105469 417.085938 268.917969 418.167969 268.703125 C 419.253906 268.488281 420.328125 268.246094 421.402344 267.976562 C 422.472656 267.707031 423.535156 267.414062 424.59375 267.09375 C 425.652344 266.773438 426.699219 266.425781 427.738281 266.054688 C 428.78125 265.683594 429.808594 265.285156 430.832031 264.863281 C 431.851562 264.4375 432.859375 263.992188 433.859375 263.519531 C 434.859375 263.046875 435.84375 262.550781 436.820312 262.03125 C 437.792969 261.507812 438.753906 260.964844 439.703125 260.398438 C 440.648438 259.828125 441.582031 259.238281 442.5 258.625 C 443.417969 258.011719 444.324219 257.375 445.210938 256.714844 C 446.097656 256.058594 446.96875 255.378906 447.820312 254.679688 C 448.675781 253.976562 449.511719 253.257812 450.332031 252.515625 C 451.148438 251.773438 451.949219 251.011719 452.730469 250.230469 C 453.511719 249.449219 454.273438 248.648438 455.015625 247.832031 C 455.757812 247.011719 456.476562 246.175781 457.179688 245.320312 C 457.878906 244.46875 458.558594 243.597656 459.214844 242.710938 C 459.875 241.824219 460.511719 240.917969 461.125 240 C 461.738281 239.082031 462.328125 238.148438 462.898438 237.203125 C 463.464844 236.253906 464.007812 235.292969 464.53125 234.320312 C 465.050781 233.34375 465.546875 232.359375 466.019531 231.359375 C 466.492188 230.359375 466.9375 229.351562 467.363281 228.332031 C 467.785156 227.308594 468.183594 226.28125 468.554688 225.238281 C 468.925781 224.199219 469.273438 223.152344 469.59375 222.09375 C 469.914062 221.035156 470.207031 219.972656 470.476562 218.902344 C 470.746094 217.828125 470.988281 216.753906 471.203125 215.667969 C 471.417969 214.585938 471.605469 213.496094 471.769531 212.40625 C 471.929688 211.3125 472.066406 210.214844 472.175781 209.117188 C 472.28125 208.015625 472.363281 206.914062 472.417969 205.8125 C 472.472656 204.707031 472.5 203.605469 472.5 202.5 C 472.5 201.394531 472.472656 200.292969 472.417969 199.1875 C 472.363281 198.085938 472.28125 196.984375 472.175781 195.882812 C 472.066406 194.785156 471.929688 193.6875 471.769531 192.59375 C 471.605469 191.503906 471.417969 190.414062 471.203125 189.332031 C 470.988281 188.246094 470.746094 187.171875 470.476562 186.097656 C 470.207031 185.027344 469.914062 183.964844 469.59375 182.90625 C 469.273438 181.847656 468.925781 180.800781 468.554688 179.761719 C 468.183594 178.71875 467.785156 177.691406 467.363281 176.667969 C 466.9375 175.648438 466.492188 174.636719 466.019531 173.640625 C 465.546875 172.640625 465.050781 171.65625 464.53125 170.679688 C 464.007812 169.707031 463.464844 168.746094 462.898438 167.796875 C 462.328125 166.851562 461.738281 165.917969 461.125 165 C 460.511719 164.082031 459.875 163.175781 459.214844 162.289062 C 458.558594 161.402344 457.878906 160.53125 457.179688 159.679688 C 456.476562 158.824219 455.757812 157.988281 455.015625 157.167969 C 454.273438 156.351562 453.511719 155.550781 452.730469 154.769531 C 451.949219 153.988281 451.148438 153.226562 450.332031 152.484375 C 449.511719 151.742188 448.675781 151.023438 447.820312 150.320312 C 446.96875 149.621094 446.097656 148.941406 445.210938 148.285156 C 444.324219 147.625 443.417969 146.988281 442.5 146.375 C 441.582031 145.761719 440.648438 145.171875 439.703125 144.601562 C 438.753906 144.035156 437.792969 143.492188 436.820312 142.96875 C 435.84375 142.449219 434.859375 141.953125 433.859375 141.480469 C 432.859375 141.007812 431.851562 140.5625 430.832031 140.136719 C 429.808594 139.714844 428.78125 139.316406 427.738281 138.945312 C 426.699219 138.574219 425.652344 138.226562 424.59375 137.90625 C 423.535156 137.585938 422.472656 137.292969 421.402344 137.023438 C 420.328125 136.753906 419.253906 136.511719 418.167969 136.296875 C 417.085938 136.082031 415.996094 135.894531 414.902344 135.730469 C 413.8125 135.570312 412.714844 135.433594 411.617188 135.324219 C 410.515625 135.214844 409.414062 135.136719 408.3125 135.082031 C 407.207031 135.027344 406.105469 135 405 135 C 386.4375 135 369.5625 142.425781 357.414062 154.914062 C 344.25 168.75 322.648438 168.75 309.488281 154.914062 C 296.324219 141.75 296.324219 120.148438 309.488281 106.988281 C 334.125 82.6875 367.875 67.5 405 67.5 C 407.210938 67.5 409.417969 67.554688 411.625 67.664062 C 413.832031 67.769531 416.035156 67.933594 418.230469 68.148438 C 420.429688 68.367188 422.625 68.636719 424.808594 68.960938 C 426.992188 69.285156 429.171875 69.664062 431.335938 70.09375 C 433.503906 70.523438 435.660156 71.007812 437.800781 71.546875 C 439.945312 72.082031 442.074219 72.671875 444.1875 73.3125 C 446.300781 73.953125 448.398438 74.648438 450.480469 75.390625 C 452.558594 76.136719 454.621094 76.929688 456.664062 77.777344 C 458.703125 78.621094 460.722656 79.515625 462.71875 80.460938 C 464.71875 81.40625 466.691406 82.398438 468.636719 83.441406 C 470.585938 84.480469 472.507812 85.570312 474.402344 86.707031 C 476.300781 87.84375 478.164062 89.023438 480 90.25 C 481.839844 91.480469 483.644531 92.75 485.417969 94.066406 C 487.195312 95.382812 488.933594 96.742188 490.644531 98.144531 C 492.351562 99.546875 494.023438 100.988281 495.660156 102.472656 C 497.296875 103.957031 498.898438 105.476562 500.460938 107.039062 C 502.023438 108.601562 503.542969 110.203125 505.027344 111.839844 C 506.511719 113.476562 507.953125 115.148438 509.355469 116.855469 C 510.757812 118.566406 512.117188 120.304688 513.433594 122.082031 C 514.75 123.855469 516.019531 125.660156 517.25 127.496094 C 518.476562 129.335938 519.65625 131.199219 520.792969 133.097656 C 521.929688 134.992188 523.019531 136.914062 524.058594 138.863281 C 525.101562 140.808594 526.09375 142.78125 527.039062 144.78125 C 527.984375 146.777344 528.878906 148.796875 529.722656 150.835938 C 530.570312 152.878906 531.363281 154.941406 532.109375 157.019531 C 532.851562 159.101562 533.546875 161.199219 534.1875 163.3125 C 534.828125 165.425781 535.417969 167.554688 535.953125 169.699219 C 536.492188 171.839844 536.976562 173.996094 537.40625 176.164062 C 537.835938 178.328125 538.214844 180.507812 538.539062 182.691406 C 538.863281 184.875 539.132812 187.070312 539.351562 189.269531 C 539.566406 191.464844 539.730469 193.667969 539.835938 195.875 C 539.945312 198.082031 540 200.289062 540 202.5 C 540 204.710938 539.945312 206.917969 539.835938 209.125 C 539.730469 211.332031 539.566406 213.535156 539.351562 215.730469 C 539.132812 217.929688 538.863281 220.125 538.539062 222.308594 C 538.214844 224.492188 537.835938 226.671875 537.40625 228.835938 C 536.976562 231.003906 536.492188 233.160156 535.953125 235.300781 C 535.417969 237.445312 534.828125 239.574219 534.1875 241.6875 C 533.546875 243.800781 532.851562 245.898438 532.109375 247.980469 C 531.363281 250.058594 530.570312 252.121094 529.722656 254.164062 C 528.878906 256.203125 527.984375 258.222656 527.039062 260.21875 C 526.09375 262.21875 525.101562 264.191406 524.058594 266.136719 C 523.019531 268.085938 521.929688 270.007812 520.792969 271.902344 C 519.65625 273.800781 518.476562 275.664062 517.25 277.5 C 516.019531 279.339844 514.75 281.144531 513.433594 282.917969 C 512.117188 284.695312 510.757812 286.433594 509.355469 288.144531 C 507.953125 289.851562 506.511719 291.523438 505.027344 293.160156 C 503.542969 294.796875 502.023438 296.398438 500.460938 297.960938 C 498.898438 299.523438 497.296875 301.042969 495.660156 302.527344 C 494.023438 304.011719 492.351562 305.453125 490.644531 306.855469 C 488.933594 308.257812 487.195312 309.617188 485.417969 310.933594 C 483.644531 312.25 481.839844 313.519531 480 314.75 C 478.164062 315.976562 476.296875 317.15625 474.402344 318.292969 C 472.507812 319.429688 470.585938 320.519531 468.636719 321.558594 C 466.691406 322.601562 464.71875 323.59375 462.71875 324.539062 C 460.722656 325.484375 458.703125 326.378906 456.664062 327.222656 C 454.621094 328.070312 452.558594 328.863281 450.480469 329.609375 C 448.398438 330.351562 446.300781 331.046875 444.1875 331.6875 C 442.074219 332.328125 439.945312 332.917969 437.800781 333.453125 C 435.660156 333.992188 433.503906 334.476562 431.335938 334.90625 C 429.171875 335.335938 426.992188 335.714844 424.808594 336.039062 C 422.625 336.363281 420.429688 336.632812 418.230469 336.851562 C 416.035156 337.066406 413.832031 337.230469 411.625 337.335938 C 409.417969 337.445312 407.210938 337.5 405 337.5 L 135 337.5 M 641.25 405 C 642.355469 405 643.457031 404.945312 644.558594 404.835938 C 645.65625 404.730469 646.75 404.566406 647.835938 404.351562 C 648.917969 404.136719 649.988281 403.867188 651.046875 403.546875 C 652.105469 403.226562 653.144531 402.855469 654.164062 402.429688 C 655.1875 402.007812 656.183594 401.535156 657.160156 401.015625 C 658.132812 400.492188 659.082031 399.925781 660 399.3125 C 660.917969 398.699219 661.804688 398.039062 662.660156 397.339844 C 663.515625 396.636719 664.332031 395.894531 665.113281 395.113281 C 665.894531 394.332031 666.636719 393.515625 667.339844 392.660156 C 668.039062 391.804688 668.699219 390.917969 669.3125 390 C 669.925781 389.082031 670.492188 388.132812 671.015625 387.160156 C 671.535156 386.183594 672.007812 385.1875 672.429688 384.164062 C 672.855469 383.144531 673.226562 382.105469 673.546875 381.046875 C 673.867188 379.988281 674.136719 378.917969 674.351562 377.835938 C 674.566406 376.75 674.730469 375.65625 674.835938 374.558594 C 674.945312 373.457031 675 372.355469 675 371.25 C 675 370.144531 674.945312 369.042969 674.835938 367.941406 C 674.730469 366.84375 674.566406 365.75 674.351562 364.664062 C 674.136719 363.582031 673.867188 362.511719 673.546875 361.453125 C 673.226562 360.394531 672.855469 359.355469 672.429688 358.335938 C 672.007812 357.3125 671.535156 356.316406 671.015625 355.339844 C 670.492188 354.367188 669.925781 353.417969 669.3125 352.5 C 668.699219 351.582031 668.039062 350.695312 667.339844 349.839844 C 666.636719 348.984375 665.894531 348.167969 665.113281 347.386719 C 664.332031 346.605469 663.515625 345.863281 662.660156 345.160156 C 661.804688 344.460938 660.917969 343.800781 660 343.1875 C 659.082031 342.574219 658.132812 342.007812 657.160156 341.484375 C 656.183594 340.964844 655.1875 340.492188 654.164062 340.070312 C 653.144531 339.644531 652.105469 339.273438 651.046875 338.953125 C 649.988281 338.632812 648.917969 338.363281 647.835938 338.148438 C 646.75 337.933594 645.65625 337.769531 644.558594 337.664062 C 643.457031 337.554688 642.355469 337.5 641.25 337.5 C 631.800781 337.5 623.363281 341.210938 617.289062 347.289062 C 604.125 360.449219 582.863281 360.449219 569.699219 347.289062 C 556.875 334.125 556.875 312.863281 569.699219 299.699219 C 587.925781 281.476562 613.238281 270 641.25 270 C 642.90625 270 644.5625 270.039062 646.21875 270.121094 C 647.875 270.203125 649.523438 270.324219 651.175781 270.488281 C 652.824219 270.648438 654.46875 270.851562 656.105469 271.097656 C 657.746094 271.339844 659.378906 271.621094 661.003906 271.945312 C 662.628906 272.269531 664.246094 272.632812 665.851562 273.035156 C 667.460938 273.4375 669.054688 273.878906 670.640625 274.359375 C 672.226562 274.839844 673.800781 275.359375 675.359375 275.917969 C 676.921875 276.476562 678.464844 277.074219 679.996094 277.707031 C 681.527344 278.339844 683.042969 279.011719 684.539062 279.722656 C 686.039062 280.429688 687.515625 281.175781 688.980469 281.957031 C 690.441406 282.738281 691.882812 283.554688 693.304688 284.40625 C 694.722656 285.257812 696.125 286.144531 697.5 287.0625 C 698.878906 287.984375 700.234375 288.9375 701.566406 289.925781 C 702.894531 290.914062 704.203125 291.929688 705.480469 292.984375 C 706.761719 294.035156 708.015625 295.117188 709.246094 296.230469 C 710.472656 297.339844 711.671875 298.484375 712.84375 299.65625 C 714.015625 300.828125 715.160156 302.027344 716.269531 303.253906 C 717.382812 304.484375 718.464844 305.738281 719.515625 307.019531 C 720.570312 308.296875 721.585938 309.605469 722.574219 310.933594 C 723.5625 312.265625 724.515625 313.621094 725.4375 315 C 726.355469 316.375 727.242188 317.777344 728.09375 319.195312 C 728.945312 320.617188 729.761719 322.058594 730.542969 323.519531 C 731.324219 324.984375 732.070312 326.460938 732.777344 327.960938 C 733.488281 329.457031 734.160156 330.972656 734.792969 332.503906 C 735.425781 334.035156 736.023438 335.578125 736.582031 337.140625 C 737.140625 338.699219 737.660156 340.273438 738.140625 341.859375 C 738.621094 343.445312 739.0625 345.039062 739.464844 346.648438 C 739.867188 348.253906 740.230469 349.871094 740.554688 351.496094 C 740.878906 353.121094 741.160156 354.753906 741.402344 356.394531 C 741.648438 358.03125 741.851562 359.675781 742.011719 361.324219 C 742.175781 362.976562 742.296875 364.625 742.378906 366.28125 C 742.460938 367.9375 742.5 369.59375 742.5 371.25 C 742.5 372.90625 742.460938 374.5625 742.378906 376.21875 C 742.296875 377.875 742.175781 379.523438 742.011719 381.175781 C 741.851562 382.824219 741.648438 384.46875 741.402344 386.105469 C 741.160156 387.746094 740.878906 389.378906 740.554688 391.003906 C 740.230469 392.628906 739.867188 394.246094 739.464844 395.851562 C 739.0625 397.460938 738.621094 399.054688 738.140625 400.640625 C 737.660156 402.226562 737.140625 403.800781 736.582031 405.359375 C 736.023438 406.921875 735.425781 408.464844 734.792969 409.996094 C 734.160156 411.527344 733.488281 413.042969 732.777344 414.539062 C 732.070312 416.039062 731.324219 417.519531 730.542969 418.980469 C 729.761719 420.441406 728.945312 421.882812 728.09375 423.304688 C 727.242188 424.722656 726.355469 426.125 725.4375 427.5 C 724.515625 428.878906 723.5625 430.234375 722.574219 431.566406 C 721.585938 432.894531 720.570312 434.203125 719.515625 435.480469 C 718.464844 436.761719 717.382812 438.019531 716.269531 439.246094 C 715.160156 440.472656 714.015625 441.671875 712.84375 442.84375 C 711.671875 444.015625 710.472656 445.160156 709.246094 446.269531 C 708.015625 447.382812 706.761719 448.464844 705.480469 449.515625 C 704.203125 450.570312 702.894531 451.585938 701.566406 452.574219 C 700.234375 453.5625 698.878906 454.515625 697.5 455.4375 C 696.125 456.355469 694.722656 457.242188 693.304688 458.09375 C 691.882812 458.945312 690.441406 459.761719 688.980469 460.542969 C 687.515625 461.324219 686.039062 462.070312 684.539062 462.777344 C 683.042969 463.488281 681.527344 464.160156 679.996094 464.792969 C 678.464844 465.425781 676.921875 466.023438 675.359375 466.582031 C 673.800781 467.140625 672.226562 467.660156 670.640625 468.140625 C 669.054688 468.621094 667.460938 469.0625 665.851562 469.464844 C 664.246094 469.867188 662.628906 470.230469 661.003906 470.554688 C 659.378906 470.878906 657.746094 471.160156 656.105469 471.402344 C 654.46875 471.648438 652.824219 471.851562 651.175781 472.011719 C 649.523438 472.175781 647.875 472.296875 646.21875 472.378906 C 644.5625 472.460938 642.90625 472.5 641.25 472.5 L 168.75 472.5 C 167.644531 472.5 166.542969 472.445312 165.441406 472.335938 C 164.34375 472.230469 163.25 472.066406 162.164062 471.851562 C 161.082031 471.636719 160.011719 471.367188 158.953125 471.046875 C 157.894531 470.726562 156.855469 470.355469 155.835938 469.929688 C 154.8125 469.507812 153.816406 469.035156 152.839844 468.515625 C 151.867188 467.992188 150.917969 467.425781 150 466.8125 C 149.082031 466.199219 148.195312 465.539062 147.339844 464.839844 C 146.484375 464.136719 145.667969 463.394531 144.886719 462.613281 C 144.105469 461.832031 143.363281 461.015625 142.660156 460.160156 C 141.960938 459.304688 141.300781 458.417969 140.6875 457.5 C 140.074219 456.582031 139.507812 455.632812 138.984375 454.660156 C 138.464844 453.683594 137.992188 452.6875 137.570312 451.664062 C 137.144531 450.644531 136.773438 449.605469 136.453125 448.546875 C 136.132812 447.488281 135.863281 446.417969 135.648438 445.335938 C 135.433594 444.25 135.269531 443.15625 135.164062 442.058594 C 135.054688 440.957031 135 439.855469 135 438.75 C 135 437.644531 135.054688 436.542969 135.164062 435.441406 C 135.269531 434.34375 135.433594 433.25 135.648438 432.164062 C 135.863281 431.082031 136.132812 430.011719 136.453125 428.953125 C 136.773438 427.894531 137.144531 426.855469 137.570312 425.835938 C 137.992188 424.8125 138.464844 423.816406 138.984375 422.839844 C 139.507812 421.867188 140.074219 420.917969 140.6875 420 C 141.300781 419.082031 141.960938 418.195312 142.660156 417.339844 C 143.363281 416.484375 144.105469 415.667969 144.886719 414.886719 C 145.667969 414.105469 146.484375 413.363281 147.339844 412.660156 C 148.195312 411.960938 149.082031 411.300781 150 410.6875 C 150.917969 410.074219 151.867188 409.507812 152.839844 408.984375 C 153.816406 408.464844 154.8125 407.992188 155.835938 407.570312 C 156.855469 407.144531 157.894531 406.773438 158.953125 406.453125 C 160.011719 406.132812 161.082031 405.863281 162.164062 405.648438 C 163.25 405.433594 164.34375 405.269531 165.441406 405.164062 C 166.542969 405.054688 167.644531 405 168.75 405 L 641.25 405 M 607.5 607.5 L 135 607.5 C 133.894531 607.5 132.792969 607.445312 131.691406 607.335938 C 130.59375 607.230469 129.5 607.066406 128.414062 606.851562 C 127.332031 606.636719 126.261719 606.367188 125.203125 606.046875 C 124.144531 605.726562 123.105469 605.355469 122.085938 604.929688 C 121.0625 604.507812 120.066406 604.035156 119.089844 603.515625 C 118.117188 602.992188 117.167969 602.425781 116.25 601.8125 C 115.332031 601.199219 114.445312 600.539062 113.589844 599.839844 C 112.734375 599.136719 111.917969 598.394531 111.136719 597.613281 C 110.355469 596.832031 109.613281 596.015625 108.910156 595.160156 C 108.210938 594.304688 107.550781 593.417969 106.9375 592.5 C 106.324219 591.582031 105.757812 590.632812 105.234375 589.660156 C 104.714844 588.683594 104.242188 587.6875 103.820312 586.664062 C 103.394531 585.644531 103.023438 584.605469 102.703125 583.546875 C 102.382812 582.488281 102.113281 581.417969 101.898438 580.335938 C 101.683594 579.25 101.519531 578.15625 101.414062 577.058594 C 101.304688 575.957031 101.25 574.855469 101.25 573.75 C 101.25 572.644531 101.304688 571.542969 101.414062 570.441406 C 101.519531 569.34375 101.683594 568.25 101.898438 567.164062 C 102.113281 566.082031 102.382812 565.011719 102.703125 563.953125 C 103.023438 562.894531 103.394531 561.855469 103.820312 560.835938 C 104.242188 559.8125 104.714844 558.816406 105.234375 557.839844 C 105.757812 556.867188 106.324219 555.917969 106.9375 555 C 107.550781 554.082031 108.210938 553.195312 108.910156 552.339844 C 109.613281 551.484375 110.355469 550.667969 111.136719 549.886719 C 111.917969 549.105469 112.734375 548.363281 113.589844 547.660156 C 114.445312 546.960938 115.332031 546.300781 116.25 545.6875 C 117.167969 545.074219 118.117188 544.507812 119.089844 543.984375 C 120.066406 543.464844 121.0625 542.992188 122.085938 542.570312 C 123.105469 542.144531 124.144531 541.773438 125.203125 541.453125 C 126.261719 541.132812 127.332031 540.863281 128.414062 540.648438 C 129.5 540.433594 130.59375 540.269531 131.691406 540.164062 C 132.792969 540.054688 133.894531 540 135 540 L 607.5 540 C 609.15625 540 610.8125 540.039062 612.46875 540.121094 C 614.121094 540.203125 615.773438 540.324219 617.425781 540.488281 C 619.074219 540.648438 620.71875 540.851562 622.355469 541.097656 C 623.996094 541.339844 625.628906 541.621094 627.253906 541.945312 C 628.878906 542.269531 630.496094 542.632812 632.101562 543.035156 C 633.710938 543.4375 635.304688 543.878906 636.890625 544.359375 C 638.476562 544.839844 640.050781 545.359375 641.609375 545.917969 C 643.171875 546.476562 644.714844 547.074219 646.246094 547.707031 C 647.777344 548.339844 649.292969 549.011719 650.789062 549.722656 C 652.289062 550.429688 653.765625 551.175781 655.230469 551.957031 C 656.691406 552.738281 658.132812 553.554688 659.554688 554.40625 C 660.972656 555.257812 662.375 556.144531 663.75 557.0625 C 665.128906 557.984375 666.484375 558.9375 667.8125 559.925781 C 669.144531 560.914062 670.453125 561.929688 671.730469 562.984375 C 673.011719 564.035156 674.265625 565.117188 675.496094 566.230469 C 676.722656 567.339844 677.921875 568.484375 679.09375 569.65625 C 680.265625 570.828125 681.410156 572.027344 682.519531 573.253906 C 683.632812 574.484375 684.714844 575.738281 685.765625 577.019531 C 686.820312 578.296875 687.835938 579.605469 688.824219 580.933594 C 689.8125 582.265625 690.765625 583.621094 691.6875 585 C 692.605469 586.375 693.492188 587.777344 694.34375 589.195312 C 695.195312 590.617188 696.011719 592.058594 696.792969 593.519531 C 697.574219 594.980469 698.320312 596.460938 699.027344 597.960938 C 699.738281 599.457031 700.410156 600.972656 701.042969 602.503906 C 701.675781 604.035156 702.273438 605.578125 702.832031 607.140625 C 703.390625 608.699219 703.910156 610.273438 704.390625 611.859375 C 704.871094 613.445312 705.3125 615.039062 705.714844 616.648438 C 706.117188 618.253906 706.480469 619.871094 706.804688 621.496094 C 707.128906 623.121094 707.410156 624.753906 707.652344 626.394531 C 707.898438 628.03125 708.101562 629.675781 708.261719 631.324219 C 708.425781 632.976562 708.546875 634.625 708.628906 636.28125 C 708.710938 637.9375 708.75 639.59375 708.75 641.25 C 708.75 642.90625 708.710938 644.5625 708.628906 646.21875 C 708.546875 647.875 708.425781 649.523438 708.261719 651.175781 C 708.101562 652.824219 707.898438 654.46875 707.652344 656.105469 C 707.410156 657.746094 707.128906 659.378906 706.804688 661.003906 C 706.480469 662.628906 706.117188 664.246094 705.714844 665.851562 C 705.3125 667.460938 704.871094 669.054688 704.390625 670.640625 C 703.910156 672.226562 703.390625 673.800781 702.832031 675.359375 C 702.273438 676.921875 701.675781 678.464844 701.042969 679.996094 C 700.410156 681.527344 699.738281 683.042969 699.027344 684.539062 C 698.320312 686.039062 697.574219 687.515625 696.792969 688.980469 C 696.011719 690.441406 695.195312 691.882812 694.34375 693.304688 C 693.492188 694.722656 692.605469 696.125 691.6875 697.5 C 690.765625 698.878906 689.8125 700.234375 688.824219 701.566406 C 687.835938 702.894531 686.820312 704.203125 685.765625 705.480469 C 684.714844 706.761719 683.632812 708.015625 682.519531 709.246094 C 681.410156 710.472656 680.265625 711.671875 679.09375 712.84375 C 677.921875 714.015625 676.722656 715.160156 675.496094 716.269531 C 674.265625 717.382812 673.011719 718.464844 671.730469 719.515625 C 670.453125 720.570312 669.144531 721.585938 667.816406 722.574219 C 666.484375 723.5625 665.128906 724.515625 663.75 725.4375 C 662.375 726.355469 660.972656 727.242188 659.554688 728.09375 C 658.132812 728.945312 656.691406 729.761719 655.230469 730.542969 C 653.765625 731.324219 652.289062 732.070312 650.789062 732.777344 C 649.292969 733.488281 647.777344 734.160156 646.246094 734.792969 C 644.714844 735.425781 643.171875 736.023438 641.609375 736.582031 C 640.050781 737.140625 638.476562 737.660156 636.890625 738.140625 C 635.304688 738.621094 633.710938 739.0625 632.101562 739.464844 C 630.496094 739.867188 628.878906 740.230469 627.253906 740.554688 C 625.628906 740.878906 623.996094 741.160156 622.355469 741.402344 C 620.71875 741.648438 619.074219 741.851562 617.425781 742.011719 C 615.773438 742.175781 614.121094 742.296875 612.46875 742.378906 C 610.8125 742.460938 609.15625 742.5 607.5 742.5 C 579.488281 742.5 554.175781 731.023438 535.949219 712.800781 C 523.125 699.636719 523.125 678.375 535.949219 665.210938 C 549.113281 652.050781 570.375 652.050781 583.539062 665.210938 C 589.613281 671.289062 598.050781 675 607.5 675 C 608.605469 675 609.707031 674.945312 610.808594 674.835938 C 611.90625 674.730469 613 674.566406 614.085938 674.351562 C 615.167969 674.136719 616.238281 673.867188 617.296875 673.546875 C 618.355469 673.226562 619.394531 672.855469 620.414062 672.429688 C 621.4375 672.007812 622.433594 671.535156 623.410156 671.015625 C 624.382812 670.492188 625.332031 669.925781 626.25 669.3125 C 627.167969 668.699219 628.054688 668.039062 628.910156 667.339844 C 629.765625 666.636719 630.582031 665.898438 631.363281 665.113281 C 632.144531 664.332031 632.886719 663.515625 633.589844 662.660156 C 634.289062 661.804688 634.949219 660.917969 635.5625 660 C 636.175781 659.082031 636.742188 658.132812 637.265625 657.160156 C 637.785156 656.183594 638.257812 655.1875 638.679688 654.164062 C 639.105469 653.144531 639.476562 652.105469 639.796875 651.046875 C 640.117188 649.988281 640.386719 648.917969 640.601562 647.835938 C 640.816406 646.75 640.980469 645.65625 641.085938 644.558594 C 641.195312 643.457031 641.25 642.355469 641.25 641.25 C 641.25 640.144531 641.195312 639.042969 641.085938 637.941406 C 640.980469 636.84375 640.816406 635.75 640.601562 634.664062 C 640.386719 633.582031 640.117188 632.511719 639.796875 631.453125 C 639.476562 630.394531 639.105469 629.355469 638.679688 628.335938 C 638.257812 627.3125 637.785156 626.316406 637.265625 625.339844 C 636.742188 624.367188 636.175781 623.417969 635.5625 622.5 C 634.949219 621.582031 634.289062 620.695312 633.589844 619.839844 C 632.886719 618.984375 632.144531 618.167969 631.363281 617.386719 C 630.582031 616.601562 629.765625 615.863281 628.910156 615.160156 C 628.054688 614.460938 627.167969 613.800781 626.25 613.1875 C 625.332031 612.574219 624.382812 612.007812 623.410156 611.484375 C 622.433594 610.964844 621.4375 610.492188 620.414062 610.070312 C 619.394531 609.644531 618.355469 609.273438 617.296875 608.953125 C 616.238281 608.632812 615.167969 608.363281 614.085938 608.148438 C 613 607.933594 611.90625 607.769531 610.808594 607.664062 C 609.707031 607.554688 608.605469 607.5 607.5 607.5 Z M 607.5 607.5 " fill-opacity="1" fill-rule="nonzero"/></svg>