<svg xmlns="http://www.w3.org/2000/svg" xmlns:xlink="http://www.w3.org/1999/xlink" width="1080" zoomAndPan="magnify" viewBox="0 0 810 809.999993" height="1080" preserveAspectRatio="xMidYMid meet" version="1.0"><path fill="#ffffff" d="M 405 109.6875 C 405 109.6875 202.5 337.5 202.5 472.5 C 202.5 584.550781 293.289062 675 405 675 C 408.3125 675 411.625 674.917969 414.9375 674.757812 C 418.246094 674.59375 421.550781 674.351562 424.847656 674.023438 C 428.148438 673.699219 431.433594 673.292969 434.710938 672.808594 C 437.992188 672.320312 441.253906 671.753906 444.503906 671.109375 C 447.757812 670.460938 450.988281 669.738281 454.203125 668.929688 C 457.417969 668.125 460.609375 667.242188 463.78125 666.28125 C 466.953125 665.316406 470.101562 664.277344 473.21875 663.164062 C 476.339844 662.046875 479.429688 660.855469 482.492188 659.585938 C 485.554688 658.316406 488.582031 656.976562 491.578125 655.558594 C 494.574219 654.140625 497.535156 652.652344 500.457031 651.089844 C 503.378906 649.527344 506.261719 647.894531 509.105469 646.191406 C 511.949219 644.484375 514.746094 642.714844 517.503906 640.871094 C 520.257812 639.03125 522.96875 637.125 525.628906 635.148438 C 528.289062 633.175781 530.902344 631.136719 533.464844 629.035156 C 536.027344 626.933594 538.535156 624.769531 540.992188 622.542969 C 543.445312 620.316406 545.84375 618.03125 548.1875 615.6875 C 550.53125 613.34375 552.816406 610.945312 555.042969 608.492188 C 557.269531 606.035156 559.433594 603.527344 561.535156 600.964844 C 563.636719 598.402344 565.675781 595.789062 567.648438 593.128906 C 569.625 590.46875 571.53125 587.757812 573.371094 585.003906 C 575.214844 582.246094 576.984375 579.449219 578.691406 576.605469 C 580.394531 573.761719 582.027344 570.878906 583.589844 567.957031 C 585.152344 565.035156 586.640625 562.074219 588.058594 559.078125 C 589.476562 556.082031 590.816406 553.054688 592.085938 549.992188 C 593.355469 546.929688 594.546875 543.839844 595.664062 540.71875 C 596.777344 537.601562 597.816406 534.453125 598.78125 531.28125 C 599.742188 528.109375 600.625 524.917969 601.429688 521.703125 C 602.238281 518.488281 602.960938 515.257812 603.609375 512.003906 C 604.253906 508.753906 604.820312 505.492188 605.308594 502.214844 C 605.792969 498.933594 606.199219 495.648438 606.523438 492.347656 C 606.851562 489.050781 607.09375 485.746094 607.257812 482.4375 C 607.417969 479.125 607.5 475.8125 607.5 472.5 C 607.5 337.5 405 109.6875 405 109.6875 M 488.363281 336.488281 L 524.136719 372.261719 L 321.636719 574.761719 L 285.863281 538.988281 M 329.0625 337.5 C 330.445312 337.5 331.824219 337.566406 333.199219 337.703125 C 334.574219 337.839844 335.9375 338.042969 337.292969 338.3125 C 338.648438 338.582031 339.988281 338.914062 341.308594 339.316406 C 342.632812 339.71875 343.929688 340.183594 345.207031 340.710938 C 346.484375 341.238281 347.730469 341.832031 348.949219 342.480469 C 350.167969 343.132812 351.351562 343.84375 352.5 344.609375 C 353.648438 345.378906 354.757812 346.199219 355.824219 347.074219 C 356.894531 347.953125 357.917969 348.878906 358.894531 349.855469 C 359.871094 350.832031 360.796875 351.855469 361.675781 352.925781 C 362.550781 353.992188 363.371094 355.101562 364.140625 356.25 C 364.90625 357.398438 365.617188 358.582031 366.269531 359.800781 C 366.917969 361.019531 367.511719 362.265625 368.039062 363.542969 C 368.566406 364.820312 369.03125 366.117188 369.433594 367.441406 C 369.835938 368.761719 370.167969 370.101562 370.4375 371.457031 C 370.707031 372.8125 370.910156 374.175781 371.046875 375.550781 C 371.183594 376.925781 371.25 378.304688 371.25 379.6875 C 371.25 381.070312 371.183594 382.449219 371.046875 383.824219 C 370.910156 385.199219 370.707031 386.5625 370.4375 387.917969 C 370.167969 389.273438 369.835938 390.613281 369.433594 391.933594 C 369.03125 393.257812 368.566406 394.554688 368.039062 395.832031 C 367.511719 397.109375 366.917969 398.355469 366.269531 399.574219 C 365.617188 400.792969 364.90625 401.976562 364.140625 403.125 C 363.371094 404.273438 362.550781 405.382812 361.675781 406.449219 C 360.796875 407.519531 359.871094 408.542969 358.894531 409.519531 C 357.917969 410.496094 356.894531 411.421875 355.824219 412.300781 C 354.757812 413.175781 353.648438 413.996094 352.5 414.765625 C 351.351562 415.53125 350.167969 416.242188 348.949219 416.894531 C 347.730469 417.542969 346.484375 418.136719 345.207031 418.664062 C 343.929688 419.191406 342.632812 419.65625 341.308594 420.058594 C 339.988281 420.460938 338.648438 420.792969 337.292969 421.0625 C 335.9375 421.332031 334.574219 421.535156 333.199219 421.671875 C 331.824219 421.808594 330.445312 421.875 329.0625 421.875 C 327.679688 421.875 326.300781 421.808594 324.925781 421.671875 C 323.550781 421.535156 322.1875 421.332031 320.832031 421.0625 C 319.476562 420.792969 318.136719 420.460938 316.816406 420.058594 C 315.492188 419.65625 314.195312 419.191406 312.917969 418.664062 C 311.640625 418.136719 310.394531 417.542969 309.175781 416.894531 C 307.957031 416.242188 306.773438 415.53125 305.625 414.765625 C 304.476562 413.996094 303.367188 413.175781 302.300781 412.300781 C 301.230469 411.421875 300.207031 410.496094 299.230469 409.519531 C 298.253906 408.542969 297.328125 407.519531 296.449219 406.449219 C 295.574219 405.382812 294.753906 404.273438 293.984375 403.125 C 293.21875 401.976562 292.507812 400.792969 291.855469 399.574219 C 291.203125 398.355469 290.613281 397.109375 290.085938 395.832031 C 289.558594 394.554688 289.09375 393.257812 288.691406 391.933594 C 288.289062 390.613281 287.957031 389.273438 287.6875 387.917969 C 287.414062 386.5625 287.214844 385.199219 287.078125 383.824219 C 286.941406 382.449219 286.875 381.070312 286.875 379.6875 C 286.875 378.304688 286.941406 376.925781 287.078125 375.550781 C 287.214844 374.175781 287.417969 372.8125 287.6875 371.457031 C 287.957031 370.101562 288.289062 368.761719 288.691406 367.441406 C 289.09375 366.117188 289.558594 364.820312 290.085938 363.542969 C 290.613281 362.265625 291.207031 361.019531 291.855469 359.800781 C 292.507812 358.582031 293.21875 357.398438 293.984375 356.25 C 294.753906 355.101562 295.574219 353.992188 296.449219 352.925781 C 297.328125 351.855469 298.253906 350.832031 299.230469 349.855469 C 300.207031 348.878906 301.230469 347.953125 302.300781 347.074219 C 303.367188 346.199219 304.476562 345.378906 305.625 344.609375 C 306.773438 343.84375 307.957031 343.132812 309.175781 342.480469 C 310.394531 341.832031 311.640625 341.238281 312.917969 340.710938 C 314.195312 340.183594 315.492188 339.71875 316.816406 339.316406 C 318.136719 338.914062 319.476562 338.582031 320.832031 338.3125 C 322.1875 338.042969 323.550781 337.839844 324.925781 337.703125 C 326.300781 337.566406 327.679688 337.5 329.0625 337.5 M 480.9375 489.375 C 482.320312 489.375 483.699219 489.441406 485.074219 489.578125 C 486.449219 489.714844 487.8125 489.917969 489.167969 490.1875 C 490.523438 490.457031 491.863281 490.789062 493.183594 491.191406 C 494.507812 491.59375 495.804688 492.058594 497.082031 492.585938 C 498.359375 493.113281 499.605469 493.707031 500.824219 494.355469 C 502.042969 495.007812 503.226562 495.71875 504.375 496.484375 C 505.523438 497.253906 506.632812 498.074219 507.699219 498.949219 C 508.769531 499.828125 509.792969 500.753906 510.769531 501.730469 C 511.746094 502.707031 512.671875 503.730469 513.546875 504.800781 C 514.425781 505.867188 515.246094 506.976562 516.015625 508.125 C 516.78125 509.273438 517.492188 510.457031 518.144531 511.675781 C 518.792969 512.894531 519.386719 514.140625 519.914062 515.417969 C 520.441406 516.695312 520.90625 517.992188 521.308594 519.316406 C 521.710938 520.636719 522.042969 521.976562 522.3125 523.332031 C 522.582031 524.6875 522.785156 526.050781 522.921875 527.425781 C 523.058594 528.800781 523.125 530.179688 523.125 531.5625 C 523.125 532.945312 523.058594 534.324219 522.921875 535.699219 C 522.785156 537.074219 522.582031 538.4375 522.3125 539.792969 C 522.042969 541.148438 521.710938 542.488281 521.308594 543.808594 C 520.90625 545.132812 520.441406 546.429688 519.914062 547.707031 C 519.386719 548.984375 518.792969 550.230469 518.144531 551.449219 C 517.492188 552.667969 516.78125 553.851562 516.015625 555 C 515.246094 556.148438 514.425781 557.257812 513.550781 558.324219 C 512.671875 559.394531 511.746094 560.417969 510.769531 561.394531 C 509.792969 562.371094 508.769531 563.296875 507.699219 564.175781 C 506.632812 565.050781 505.523438 565.871094 504.375 566.640625 C 503.226562 567.40625 502.042969 568.117188 500.824219 568.769531 C 499.605469 569.417969 498.359375 570.011719 497.082031 570.539062 C 495.804688 571.066406 494.507812 571.53125 493.183594 571.933594 C 491.863281 572.335938 490.523438 572.667969 489.167969 572.9375 C 487.8125 573.207031 486.449219 573.410156 485.074219 573.546875 C 483.699219 573.683594 482.320312 573.75 480.9375 573.75 C 479.554688 573.75 478.175781 573.683594 476.800781 573.546875 C 475.425781 573.410156 474.0625 573.207031 472.707031 572.9375 C 471.351562 572.667969 470.011719 572.335938 468.691406 571.933594 C 467.367188 571.53125 466.070312 571.066406 464.792969 570.539062 C 463.515625 570.011719 462.269531 569.417969 461.050781 568.769531 C 459.832031 568.117188 458.648438 567.40625 457.5 566.640625 C 456.351562 565.871094 455.242188 565.050781 454.175781 564.171875 C 453.105469 563.296875 452.082031 562.371094 451.105469 561.394531 C 450.128906 560.417969 449.203125 559.394531 448.324219 558.324219 C 447.449219 557.257812 446.628906 556.148438 445.859375 555 C 445.09375 553.851562 444.382812 552.667969 443.730469 551.449219 C 443.082031 550.230469 442.488281 548.984375 441.960938 547.707031 C 441.433594 546.429688 440.96875 545.132812 440.566406 543.808594 C 440.164062 542.488281 439.832031 541.148438 439.558594 539.792969 C 439.289062 538.4375 439.089844 537.074219 438.953125 535.699219 C 438.816406 534.324219 438.75 532.945312 438.75 531.5625 C 438.75 530.179688 438.816406 528.800781 438.953125 527.425781 C 439.089844 526.050781 439.292969 524.6875 439.5625 523.332031 C 439.832031 521.976562 440.164062 520.636719 440.566406 519.316406 C 440.96875 517.992188 441.433594 516.695312 441.960938 515.417969 C 442.488281 514.140625 443.082031 512.894531 443.730469 511.675781 C 444.382812 510.457031 445.09375 509.273438 445.859375 508.125 C 446.628906 506.976562 447.449219 505.867188 448.324219 504.800781 C 449.203125 503.730469 450.128906 502.707031 451.105469 501.730469 C 452.082031 500.753906 453.105469 499.828125 454.175781 498.949219 C 455.242188 498.074219 456.351562 497.253906 457.5 496.484375 C 458.648438 495.71875 459.832031 495.007812 461.050781 494.355469 C 462.269531 493.707031 463.515625 493.113281 464.792969 492.585938 C 466.070312 492.058594 467.367188 491.59375 468.691406 491.191406 C 470.011719 490.789062 471.351562 490.457031 472.707031 490.1875 C 474.0625 489.917969 475.425781 489.714844 476.800781 489.578125 C 478.175781 489.441406 479.554688 489.375 480.9375 489.375 Z M 480.9375 489.375 " fill-opacity="1" fill-rule="nonzero"/></svg>